<svg width="48" height="46" viewBox="0 0 48 46" fill="none" xmlns="http://www.w3.org/2000/svg">
<mask id="path-1-inside-1" fill="white">
<path fill-rule="evenodd" clip-rule="evenodd" d="M19.6825 11C18.9532 11 18.2816 11.3971 17.9301 12.0362L15.75 16H8C3.58172 16 0 19.5817 0 24V38C0 42.4183 3.58172 46 8 46H40C44.4183 46 48 42.4183 48 38V24C48 19.5817 44.4183 16 40 16H32.75L31.0307 12.1793C30.7077 11.4616 29.9939 11 29.2068 11H19.6825Z"/>
</mask>
<path d="M17.9301 12.0362L15.3015 10.5904L15.3015 10.5904L17.9301 12.0362ZM15.75 16V19H17.5238L18.3786 17.4458L15.75 16ZM32.75 16L30.0142 17.2311L30.8102 19H32.75V16ZM31.0307 12.1793L33.7664 10.9482V10.9482L31.0307 12.1793ZM20.5588 13.4819C20.383 13.8015 20.0472 14 19.6825 14V8C17.8591 8 16.1802 8.99267 15.3015 10.5904L20.5588 13.4819ZM18.3786 17.4458L20.5588 13.4819L15.3015 10.5904L13.1214 14.5542L18.3786 17.4458ZM8 19H15.75V13H8V19ZM3 24C3 21.2386 5.23858 19 8 19V13C1.92487 13 -3 17.9249 -3 24H3ZM3 38V24H-3V38H3ZM8 43C5.23858 43 3 40.7614 3 38H-3C-3 44.0751 1.92487 49 8 49V43ZM40 43H8V49H40V43ZM45 38C45 40.7614 42.7614 43 40 43V49C46.0751 49 51 44.0751 51 38H45ZM45 24V38H51V24H45ZM40 19C42.7614 19 45 21.2386 45 24H51C51 17.9249 46.0751 13 40 13V19ZM32.75 19H40V13H32.75V19ZM28.2949 13.4104L30.0142 17.2311L35.4858 14.7689L33.7664 10.9482L28.2949 13.4104ZM29.2068 14C28.8133 14 28.4564 13.7692 28.2949 13.4104L33.7664 10.9482C32.959 9.15392 31.1744 8 29.2068 8V14ZM19.6825 14H29.2068V8H19.6825V14Z" fill="#152C5B" mask="url(#path-1-inside-1)"/>
<circle cx="23" cy="29" r="4.5" stroke="#FF498B" stroke-width="3"/>
<path d="M40 23H34" stroke="#152C5B" stroke-width="3" stroke-linecap="round"/>
</svg>
