<svg width="48" height="48" viewBox="0 0 48 48" fill="none" xmlns="http://www.w3.org/2000/svg">
<path d="M30.5 41C30.5 41.4702 30.2885 42.0364 29.6642 42.6821C29.033 43.3351 28.0471 43.9916 26.7125 44.5755C24.0477 45.7414 20.2614 46.5 16 46.5C11.7386 46.5 7.9523 45.7414 5.28752 44.5755C3.9529 43.9916 2.96704 43.3351 2.33578 42.6821C1.7115 42.0364 1.5 41.4702 1.5 41C1.5 40.5298 1.7115 39.9636 2.33578 39.3179C2.96704 38.6649 3.9529 38.0084 5.28752 37.4245C7.9523 36.2586 11.7386 35.5 16 35.5C20.2614 35.5 24.0477 36.2586 26.7125 37.4245C28.0471 38.0084 29.033 38.6649 29.6642 39.3179C30.2885 39.9636 30.5 40.5298 30.5 41Z" stroke="#152C5B" stroke-width="3"/>
<path d="M28.5 12C28.5 15.0568 26.9995 22.3633 24.4972 28.9528C23.2523 32.231 21.8002 35.2197 20.2378 37.3601C18.6169 39.5809 17.167 40.5 16 40.5C14.833 40.5 13.3831 39.5809 11.7622 37.3601C10.1998 35.2197 8.74771 32.231 7.5028 28.9528C5.00047 22.3633 3.5 15.0568 3.5 12C3.5 6.40961 8.87118 1.5 16 1.5C23.1288 1.5 28.5 6.40961 28.5 12Z" fill="white" stroke="#152C5B" stroke-width="3"/>
<circle cx="16" cy="15" r="4.5" stroke="#FF498B" stroke-width="3"/>
</svg>
